<svg width="60" height="60" viewBox="0 0 60 60" fill="none" xmlns="http://www.w3.org/2000/svg">
<path fill-rule="evenodd" clip-rule="evenodd" d="M45.4794 12.8206C45.4794 14.6433 44.0017 16.1206 42.1794 16.1206C40.3571 16.1206 38.8794 14.6433 38.8794 12.8206C38.8794 10.9979 40.3571 9.52059 42.1794 9.52059C44.0021 9.52059 45.4794 10.9979 45.4794 12.8206ZM27.5 36.6665C22.4374 36.6665 18.3335 32.5626 18.3335 27.5C18.3335 22.4374 22.4374 18.3335 27.5 18.3335C32.5626 18.3335 36.6665 22.4374 36.6665 27.5C36.6665 32.5626 32.5626 36.6665 27.5 36.6665ZM27.5 13.3783C19.7007 13.3783 13.3783 19.7007 13.3783 27.5C13.3783 35.2993 19.7007 41.6217 27.5 41.6217C35.2993 41.6217 41.6217 35.2993 41.6217 27.5C41.6217 19.7007 35.2993 13.3783 27.5 13.3783ZM27.5 4.95516C34.8429 4.95516 35.7126 4.98309 38.6121 5.11543C41.2934 5.23789 42.7496 5.68563 43.7186 6.06246C45.002 6.56133 45.9181 7.1573 46.8806 8.1198C47.8431 9.08187 48.4391 9.99797 48.938 11.2819C49.3144 12.2508 49.7625 13.707 49.885 16.3883C50.0173 19.2882 50.0453 20.1579 50.0453 27.5009C50.0453 34.8438 50.0173 35.7135 49.885 38.613C49.7625 41.2943 49.3148 42.7505 48.938 43.7194C48.4391 45.0029 47.8431 45.919 46.8806 46.8815C45.9186 47.844 45.0025 48.44 43.7186 48.9388C42.7496 49.3152 41.2934 49.7634 38.6121 49.8859C35.7126 50.0182 34.8429 50.0461 27.5 50.0461C20.1566 50.0461 19.287 50.0182 16.3874 49.8859C13.7062 49.7634 12.25 49.3157 11.281 48.9388C9.99754 48.44 9.08145 47.844 8.11895 46.8815C7.15688 45.9194 6.56047 45.0033 6.0616 43.7194C5.6852 42.7505 5.23703 41.2943 5.11457 38.613C4.98223 35.713 4.9543 34.8434 4.9543 27.5009C4.9543 20.1579 4.98223 19.2882 5.11457 16.3883C5.23703 13.707 5.68477 12.2508 6.0616 11.2819C6.56047 9.9984 7.15645 9.0823 8.11895 8.1198C9.08102 7.1573 9.99711 6.56133 11.281 6.06246C12.25 5.68605 13.7062 5.23789 16.3874 5.11543C19.2874 4.98309 20.1571 4.95516 27.5 4.95516ZM27.5 0C20.0316 0 19.0949 0.0317969 16.1618 0.16543C13.2348 0.299062 11.2355 0.763984 9.48664 1.44375C7.67809 2.14629 6.14453 3.08687 4.6157 4.6157C3.08687 6.14453 2.14629 7.67809 1.44375 9.48664C0.763984 11.2359 0.299062 13.2348 0.16543 16.1618C0.0317969 19.0949 0 20.0316 0 27.5C0 34.9684 0.0317969 35.9051 0.16543 38.8382C0.299062 41.7652 0.763984 43.7641 1.44375 45.5134C2.14629 47.3219 3.08687 48.8555 4.6157 50.3843C6.14453 51.9131 7.67809 52.8533 9.48664 53.5562C11.2359 54.236 13.2348 54.7009 16.1618 54.8346C19.0949 54.9682 20.0316 55 27.5 55C34.9684 55 35.9051 54.9682 38.8382 54.8346C41.7652 54.7009 43.7641 54.236 45.5134 53.5562C47.3219 52.8533 48.8555 51.9131 50.3843 50.3843C51.9131 48.8555 52.8533 47.3219 53.5562 45.5134C54.236 43.7641 54.7009 41.7652 54.8346 38.8382C54.9682 35.9051 55 34.9684 55 27.5C55 20.0316 54.9682 19.0949 54.8346 16.1618C54.7009 13.2348 54.236 11.2359 53.5562 9.48664C52.8533 7.67809 51.9131 6.14453 50.3843 4.6157C48.8555 3.08687 47.3219 2.14672 45.5134 1.44375C43.7641 0.763984 41.7652 0.299062 38.8382 0.16543C35.9051 0.0317969 34.9684 0 27.5 0Z" fill="#484E5E"/>
</svg>
