<svg width="60" height="60" viewBox="0 0 60 60" fill="none" xmlns="http://www.w3.org/2000/svg">
<path fill-rule="evenodd" clip-rule="evenodd" d="M3.86619 3.86619C0 7.73238 0 13.9549 0 26.4V28.6C0 41.0451 0 47.2676 3.86619 51.1338C7.73238 55 13.9549 55 26.4 55H28.6C41.0451 55 47.2676 55 51.1338 51.1338C55 47.2676 55 41.0451 55 28.6V26.4C55 13.9549 55 7.73238 51.1338 3.86619C47.2676 0 41.0451 0 28.6 0H26.4C13.9549 0 7.73238 0 3.86619 3.86619ZM9.28125 16.7292C9.57917 31.0292 16.7291 39.6229 29.2645 39.6229H29.9751V31.4417C34.5814 31.9 38.0644 35.2687 39.4623 39.6229H45.9708C44.1833 33.1146 39.4852 29.5167 36.5519 28.1417C39.4852 26.4458 43.6102 22.3208 44.5956 16.7292H38.683C37.3997 21.2667 33.596 25.3917 29.9751 25.7812V16.7292H24.0624V32.5875C20.3957 31.6708 15.7667 27.225 15.5604 16.7292H9.28125Z" fill="#484E5E"/>
</svg>
