<svg width="60" height="60" viewBox="0 0 60 60" fill="none" xmlns="http://www.w3.org/2000/svg">
<path fill-rule="evenodd" clip-rule="evenodd" d="M55 27.5C55 42.6878 42.6878 55 27.5 55C12.3122 55 0 42.6878 0 27.5C0 12.3122 12.3122 0 27.5 0C42.6878 0 55 12.3122 55 27.5ZM28.4855 20.3016C25.8107 21.4141 20.4649 23.7168 12.4481 27.2096C11.1463 27.7273 10.4643 28.2337 10.4023 28.7289C10.2973 29.5658 11.3454 29.8954 12.7725 30.3441C12.9667 30.4052 13.1678 30.4684 13.374 30.5355C14.7781 30.9919 16.6669 31.5258 17.6488 31.5471C18.5394 31.5663 19.5335 31.1991 20.631 30.4455C28.1214 25.3893 31.988 22.8336 32.2307 22.7785C32.402 22.7397 32.6393 22.6908 32.8001 22.8337C32.9609 22.9766 32.9451 23.2473 32.928 23.3199C32.8242 23.7625 28.7102 27.5872 26.5813 29.5665C25.9176 30.1835 25.4468 30.6212 25.3506 30.7211C25.135 30.9451 24.9153 31.1569 24.7041 31.3604C23.3997 32.6179 22.4215 33.561 24.7583 35.1009C25.8812 35.8409 26.7798 36.4528 27.6763 37.0633C28.6553 37.7301 29.6319 38.3951 30.8954 39.2233C31.2172 39.4343 31.5247 39.6535 31.8241 39.8669C32.9635 40.6792 33.9871 41.409 35.2518 41.2926C35.9866 41.225 36.7456 40.534 37.1311 38.4732C38.0421 33.6029 39.8329 23.0505 40.2467 18.7021C40.283 18.3211 40.2374 17.8336 40.2008 17.6195C40.1641 17.4055 40.0876 17.1005 39.8094 16.8748C39.4799 16.6074 38.9712 16.5511 38.7437 16.5551C37.7094 16.5733 36.1225 17.1251 28.4855 20.3016Z" fill="#484E5E"/>
</svg>
